<?xml version="1.0" encoding="iso-8859-1"?>
<!-- Generator: Adobe Illustrator 17.1.0, SVG Export Plug-In . SVG Version: 6.00 Build 0)  -->
<!DOCTYPE svg PUBLIC "-//W3C//DTD SVG 1.1//EN" "http://www.w3.org/Graphics/SVG/1.1/DTD/svg11.dtd">
<svg version="1.1" id="Capa_1" xmlns="http://www.w3.org/2000/svg" xmlns:xlink="http://www.w3.org/1999/xlink" x="0px" y="0px"
	 viewBox="0 0 479.862 479.862" style="enable-background:new 0 0 479.862 479.862;" xml:space="preserve">
<g>
	<path style="fill:none;" d="M258.728,222.543c-6.001,12.49-12,23.492-18.462,32.499h59.932l22.205-40.928l-48.868-24.893
		C269.841,199.139,264.716,210.107,258.728,222.543z"/>
	<path style="fill:none;" d="M34.723,387.091c0,40.126,32.646,72.772,72.773,72.772c36.733,0,67.178-27.363,72.068-62.772h-72.068
		c-3.525,0-6.79-1.856-8.593-4.886c-1.803-3.029-1.878-6.784-0.196-9.883l34.371-63.35c-7.963-3-16.581-4.654-25.581-4.654
		C67.369,314.318,34.723,346.964,34.723,387.091z"/>
	<path style="fill:none;" d="M199.727,377.091h11.328c0.127-0.378,0.272-0.751,0.446-1.114
		c11.047-23.112,13.616-42.977,7.636-59.041c-5.629-15.119-19.109-27.918-41.064-38.958l-17.821,32.846
		C181.827,325.794,196.775,349.67,199.727,377.091z"/>
	<path style="fill:none;" d="M150.643,328.534l-26.344,48.557h55.265C176.822,357.24,166.057,339.922,150.643,328.534z"/>
	<path style="fill:none;" d="M377.136,395.881c-1.516,0.821-3.149,1.212-4.76,1.212c-3.549,0-6.987-1.894-8.798-5.233
		l-34.357-63.325c-17.955,13.265-29.625,34.57-29.625,58.557c0,40.126,32.646,72.772,72.772,72.772
		c40.127,0,72.773-32.646,72.773-72.772c0-40.127-32.646-72.772-72.773-72.772c-9,0-17.618,1.654-25.581,4.654l34.37,63.35
		C383.79,387.177,381.99,393.247,377.136,395.881z"/>
	<path style="fill:none;" d="M237.879,309.958c6.975,18.734,5.665,40.378-3.876,64.459l1.199,0.42l54.144-99.795h-69.49
		c-1.749,1.046-3.542,1.973-5.388,2.761C225.673,287.315,233.421,297.981,237.879,309.958z"/>
	<path d="M107.496,459.862c-40.127,0-72.773-32.646-72.773-72.772c0-40.127,32.646-72.772,72.773-72.772
		c9,0,17.618,1.654,25.581,4.654l9.611-17.714c-10.858-4.469-22.741-6.94-35.192-6.94c-51.155,0-92.772,41.617-92.772,92.772
		c0,51.154,41.618,92.772,92.772,92.772c47.776,0,87.228-36.303,92.232-82.772h-20.164
		C174.673,432.5,144.228,459.862,107.496,459.862z"/>
	<path d="M160.252,310.824l-9.609,17.711c15.414,11.388,26.179,28.706,28.921,48.557h20.164
		C196.775,349.67,181.827,325.794,160.252,310.824z"/>
	<path d="M372.367,294.318c-12.451,0-24.333,2.472-35.192,6.94l9.611,17.714c7.963-3,16.581-4.654,25.581-4.654
		c40.127,0,72.773,32.646,72.773,72.772c0,40.126-32.646,72.772-72.773,72.772c-40.126,0-72.772-32.646-72.772-72.772
		c0-23.986,11.67-45.292,29.625-58.557l-9.609-17.711c-24.161,16.764-40.016,44.697-40.016,76.267
		c0,51.154,41.617,92.772,92.772,92.772c51.155,0,92.773-41.617,92.773-92.772C465.139,335.935,423.521,294.318,372.367,294.318z"/>
	<path style="fill:#E85512;" d="M211.289,384.127c-0.936-2.251-1.006-4.752-0.234-7.036h-11.328h-20.164h-55.265l26.344-48.557
		l9.609-17.711l17.821-32.846c-1.654-0.832-3.35-1.654-5.1-2.466c-1.432-0.609-2.885-1.264-4.364-1.972
		c-3.033-1.454-5.833-2.963-8.424-4.53l-17.497,32.249l-9.611,17.714l-34.371,63.35c-1.681,3.099-1.606,6.854,0.196,9.883
		c1.803,3.029,5.068,4.886,8.593,4.886h72.068h20.164h38.504l-21.015-7.364C214.535,388.787,212.379,386.751,211.289,384.127z"/>
	<path style="fill:#E85512;" d="M363.577,391.859c1.811,3.34,5.249,5.233,8.798,5.233c1.611,0,3.245-0.391,4.76-1.212
		c4.854-2.634,6.654-8.704,4.021-13.559l-34.37-63.35l-9.611-17.714l-19.649-36.216l24.512-45.18h-5.951
		c-1.62,0-3.144-0.394-4.498-1.077c-0.011-0.005-0.031-0.007-0.041-0.012l-9.145-4.658l-22.205,40.928h-59.932
		c-6.23,8.683-12.894,15.505-20.409,20h69.49l-54.144,99.795l19.119,6.699l51.827-95.525l13.462,24.812l9.609,17.711
		L363.577,391.859z"/>
	<path style="fill:#6ECCAE;" d="M240.705,213.874c6.283-13.049,11.532-24.257,14.912-33.78l-28.798-14.669
		c-4.921-2.507-6.878-8.528-4.372-13.449c2.507-4.922,8.528-6.88,13.45-4.371l23.794,12.12c-0.331-7.624-3.93-16.005-24.008-25.664
		c-9.352-4.504-16.854-6.693-22.937-6.693c-15.663,0-24.995,16.02-42.555,52.572c-13.47,27.969-17.719,45.442-13.78,56.667
		c2.557,7.288,9.158,13.281,20.768,18.86c1.252,0.549,2.48,1.105,3.695,1.665c6.403,2.721,11.901,4.066,16.698,4.066
		C212.057,261.197,224.553,247.486,240.705,213.874z"/>
	<path style="fill:#7A4D33;" d="M236.376,76.548c4.679,9.022,12.593,15.685,22.284,18.761c16.707,5.3,34.411-1.584,43.496-15.652
		l-70.024-22.224C231.847,64.001,233.27,70.558,236.376,76.548z"/>
	<path d="M234.003,374.417c9.542-24.081,10.851-45.725,3.876-64.459c-4.458-11.977-12.206-22.643-23.411-32.155
		c1.847-0.788,3.639-1.715,5.388-2.761c7.516-4.495,14.179-11.317,20.409-20c6.462-9.007,12.461-20.009,18.462-32.499
		c5.988-12.436,11.113-23.404,14.807-33.321l48.868,24.893l9.145,4.658c0.01,0.005,0.03,0.007,0.041,0.012
		c1.353,0.684,2.878,1.077,4.498,1.077h5.951h19.292c10.004,0,18.143,8.139,18.143,18.143c0,5.522,4.477,10,10,10
		c5.523,0,10-4.478,10-10c0-21.032-17.111-38.143-38.143-38.143h-22.844l-59.485-30.301c0.475-3.046,0.735-6.001,0.717-8.869
		c-0.155-24.851-20.259-37.387-35.363-44.653c-12.116-5.835-22.456-8.672-31.611-8.672c-29.879,0-44.107,29.618-60.578,63.903
		c-16.386,34.023-20.624,54.871-14.629,71.958c3.633,10.355,10.921,18.688,22.646,25.781c2.59,1.567,5.391,3.076,8.424,4.53
		c1.479,0.709,2.932,1.363,4.364,1.972c1.75,0.812,3.447,1.634,5.1,2.466c21.955,11.04,35.435,23.839,41.064,38.958
		c5.98,16.065,3.412,35.929-7.636,59.041c-0.174,0.363-0.318,0.737-0.446,1.114c-0.771,2.284-0.702,4.785,0.234,7.036
		c1.09,2.624,3.246,4.66,5.927,5.6l21.015,7.364l12.527,4.39c1.094,0.384,2.21,0.565,3.307,0.565c4.129,0,7.995-2.578,9.437-6.696
		c1.826-5.212-0.918-10.918-6.13-12.744l-3.051-1.069l-19.119-6.699L234.003,374.417z M197.571,261.197
		c-4.798,0-10.295-1.345-16.698-4.066c-1.215-0.56-2.443-1.116-3.695-1.665c-11.61-5.578-18.211-11.572-20.768-18.86
		c-3.939-11.225,0.311-28.698,13.78-56.667c17.56-36.553,26.892-52.572,42.555-52.572c6.083,0,13.584,2.189,22.937,6.693
		c20.078,9.659,23.678,18.04,24.008,25.664l-23.794-12.12c-4.921-2.509-10.943-0.551-13.45,4.371
		c-2.507,4.921-0.549,10.942,4.372,13.449l28.798,14.669c-3.38,9.522-8.629,20.731-14.912,33.78
		C224.553,247.486,212.057,261.197,197.571,261.197z"/>
	<path style="fill:#F7CF40;" d="M303.974,41.533c-4.678-9.042-12.591-15.715-22.283-18.791C275.957,20.923,269.814,20,263.434,20
		c-15.782,0-30.426,5.709-38.374,14.205L308.224,60.6C308.501,54.056,307.069,47.517,303.974,41.533z"/>
	<path d="M207.151,49.504l5.481,1.74c-1.619,11.78,0.406,23.745,5.99,34.512c7.137,13.762,19.208,23.925,33.988,28.615
		c5.821,1.848,11.719,2.726,17.524,2.726c24.631,0,47.549-15.814,55.389-40.515c4.683-14.756,3.338-30.467-3.786-44.238
		C314.603,18.553,302.529,8.373,287.74,3.68C280.047,1.238,271.869,0,263.434,0c-30.065,0-55.885,15.193-62.789,36.947
		c-0.803,2.528-0.568,5.271,0.652,7.626S204.623,48.702,207.151,49.504z M258.66,95.309c-9.691-3.076-17.605-9.738-22.284-18.761
		c-3.106-5.99-4.529-12.547-4.243-19.115l70.024,22.224C293.072,93.725,275.367,100.608,258.66,95.309z M263.434,20
		c6.38,0,12.523,0.923,18.257,2.742c9.692,3.076,17.605,9.749,22.283,18.791c3.095,5.983,4.528,12.522,4.25,19.066L225.06,34.205
		C233.008,25.709,247.652,20,263.434,20z"/>
</g>
<g>
</g>
<g>
</g>
<g>
</g>
<g>
</g>
<g>
</g>
<g>
</g>
<g>
</g>
<g>
</g>
<g>
</g>
<g>
</g>
<g>
</g>
<g>
</g>
<g>
</g>
<g>
</g>
<g>
</g>
</svg>
