<?xml version="1.0" encoding="iso-8859-1"?>
<!-- Generator: Adobe Illustrator 19.0.0, SVG Export Plug-In . SVG Version: 6.00 Build 0)  -->
<svg version="1.1" id="Layer_1" xmlns="http://www.w3.org/2000/svg" xmlns:xlink="http://www.w3.org/1999/xlink" x="0px" y="0px"
	 viewBox="0 0 496 496" style="enable-background:new 0 0 496 496;" xml:space="preserve">
<path style="fill:#245151;" d="M360,314.8c0,8.8-7.2,15.2-15.2,15.2H304c-8.8,0-15.2-7.2-15.2-15.2V73.2c-0.8-8,6.4-15.2,14.4-15.2
	H344c8.8,0,16,7.2,16,15.2V314.8z"/>
<path style="fill:#356466;" d="M296,315.6c0,8.8-8.8,14.4-16.8,14.4h-204c-8.8,0-19.2-5.6-19.2-14.4v-204C56,102.8,66.4,98,75.2,98
	h204c8.8,0,16.8,4.8,16.8,13.6V315.6z"/>
<path style="fill:#4A7A7F;" d="M256,307.6c0,8.8-8.8,14.4-16.8,14.4h-93.6c-8.8,0-17.6-5.6-17.6-14.4V61.2c0-8.8,9.6-19.2,17.6-19.2
	h92.8c8.8,0,17.6,10.4,17.6,19.2V307.6z"/>
<g>
	<path style="fill:#0FA862;" d="M140.8,342.8c-8,0-15.2-5.6-16.8-13.6l-38.4-180c-1.6-9.6,4-18.4,12.8-20c9.6-1.6,18.4,4,20,12.8
		l39.2,180c1.6,9.6-4,18.4-12.8,20C143.2,342.8,142.4,342.8,140.8,342.8z"/>
	<path style="fill:#0FA862;" d="M273.6,342.8c-0.8,0-2.4,0-4,0c-9.6-1.6-15.2-11.2-12.8-20L296,142c1.6-9.6,11.2-15.2,20-12.8
		c9.6,1.6,15.2,11.2,12.8,20l-38.4,180C288.8,337.2,281.6,342.8,273.6,342.8z"/>
	<path style="fill:#0FA862;" d="M208,338.8c-9.6,0-16-8-16-16.8V142c0-9.6,6.4-16.8,16-16.8s16,8,16,16.8v180
		C224,331.6,217.6,338.8,208,338.8z"/>
</g>
<path style="fill:#1AD85A;" d="M414.4,147.6c1.6-4.8,0.8-12.8-2.4-16.8c-3.2-4-8-8.8-13.6-8.8H16.8c-5.6,0-10.4,4-13.6,8.8
	c-3.2,4-4,11.2-2.4,16L40,273.2l2.4,7.2l16.8,54.4c2.4,7.2,8.8,12,16,12h264c7.2,0,14.4-4.8,16-11.2l16.8-54.4l2.4-7.2L414.4,147.6z
	 M60.8,226h293.6l-9.6,32H70.4L60.8,226z M374.4,162l-9.6,24H49.6L40,162H374.4z M88,314l-7.2-24h253.6l-7.2,24H88z"/>
<path style="fill:#19BF55;" d="M397.6,130H16.8c-5.6,0-10.4,4-13.6,8.8c-1.6,1.6-2.4,4.8-2.4,7.2c0,0,0,0.8,0,1.6L40,273.2l2.4,7.2
	l16.8,54.4c2.4,7.2,8.8,12,16,12h264c7.2,0,14.4-4.8,16-11.2l16.8-54.4l2.4-7.2l39.2-125.6v-0.8c-0.8-2.4-1.6-5.6-2.4-8
	C408.8,134,403.2,130,397.6,130z M334.4,298l-7.2,24H88l-7.2-24h2.4l-2.4-8h253.6l-2.4,8H334.4z M354.4,234l-9.6,32H70.4l-9.6-32
	h2.4l-2.4-8h293.6l-2.4,8H354.4z M374.4,170l-9.6,24H49.6L40,170h2.4l-2.4-8h334.4l-2.4,8H374.4z"/>
<path style="fill:#72B1B7;" d="M348.8,410H66.4c-9.6,0-16.8-6.4-16.8-16s8-16,16.8-16h282.4c9.6,0,16.8,6.4,16.8,16
	C365.6,403.6,358.4,410,348.8,410z"/>
<path style="fill:#5D9BA5;" d="M80.8,410h112c0-16-16-32-33.6-32h-60C87.2,378,80.8,394,80.8,410z"/>
<path style="fill:#C43700;" d="M166.4,408.4c0,24-19.2,45.6-43.2,45.6S80,431.6,80,408.4c0-24,19.2-43.2,43.2-43.2
	C147.2,365.2,166.4,384.4,166.4,408.4z"/>
<path style="fill:#FF9D00;" d="M166.4,408.4c0,24-19.2,43.2-43.2,43.2S80,432.4,80,408.4S99.2,362,123.2,362
	S166.4,384.4,166.4,408.4z"/>
<circle style="fill:#FF5B00;" cx="123.2" cy="408.4" r="43.2"/>
<path style="fill:#DD4400;" d="M92.8,378c16.8-16.8,44-16.8,60.8,0s16.8,44,0,60.8"/>
<path style="fill:#EBF0F2;" d="M123.2,434c-14.4,0-25.6-11.2-25.6-25.6s11.2-25.6,25.6-25.6s25.6,11.2,25.6,25.6
	S137.6,434,123.2,434z"/>
<path style="fill:#CADFE5;" d="M141.6,390.8c9.6,9.6,9.6,26.4,0,36s-26.4,9.6-36,0"/>
<path style="fill:#5D9BA5;" d="M238.4,410h112c0-16-16-32-33.6-32H256C245.6,378,238.4,394,238.4,410z"/>
<path style="fill:#C43700;" d="M324,408.4c0,24-19.2,45.6-43.2,45.6s-43.2-22.4-43.2-45.6c0-24,19.2-43.2,43.2-43.2
	C304.8,365.2,324,384.4,324,408.4z"/>
<path style="fill:#FF9D00;" d="M324,408.4c0,24-19.2,43.2-43.2,43.2s-43.2-19.2-43.2-43.2s19.2-46.4,43.2-46.4S324,384.4,324,408.4z
	"/>
<circle style="fill:#FF5B00;" cx="281.6" cy="408.4" r="43.2"/>
<path style="fill:#DD4400;" d="M251.2,378c16.8-16.8,44-16.8,60.8,0s16.8,44,0,60.8"/>
<path style="fill:#EBF0F2;" d="M281.6,434c-14.4,0-25.6-11.2-25.6-25.6s11.2-25.6,25.6-25.6s25.6,11.2,25.6,25.6
	C306.4,422.8,295.2,434,281.6,434z"/>
<path style="fill:#CADFE5;" d="M299.2,390.8c9.6,9.6,9.6,26.4,0,36s-26.4,9.6-36,0"/>
<path style="fill:#1B5A89;" d="M496,82c0,8.8-7.2,16-16,16h-72c-8.8,0-16-7.2-16-16l0,0c0-8.8,7.2-16,16-16h72
	C488.8,66,496,73.2,496,82L496,82z"/>
<path style="fill:#18456D;" d="M407.2,66c-7.2,0-13.6,6.4-15.2,12.8c2.4,7.2,7.2,11.2,15.2,11.2h72c7.2,0,14.4-4.8,16.8-12
	c-4-8.8-9.6-12-16.8-12H407.2z"/>
<g>
</g>
<g>
</g>
<g>
</g>
<g>
</g>
<g>
</g>
<g>
</g>
<g>
</g>
<g>
</g>
<g>
</g>
<g>
</g>
<g>
</g>
<g>
</g>
<g>
</g>
<g>
</g>
<g>
</g>
</svg>
